<svg id="Layer_1" data-name="Layer 1" xmlns="http://www.w3.org/2000/svg" viewBox="0 0 50 50"><defs><style>.cls-1{fill:#fff;}</style></defs><path class="cls-1" d="M25,2.834A22.166,22.166,0,1,0,47.166,25,22.192,22.192,0,0,0,25,2.834Zm0,2.5a19.63,19.63,0,0,1,15.3,7.334,2.252,2.252,0,0,0-1.454.575,3.34,3.34,0,0,0-.856,1.353,20.384,20.384,0,0,0-.527,2.088L33.642,33.708,29.325,17.777q-.535-1.968-.855-2.824a3.97,3.97,0,0,0-1.143-1.581,3.4,3.4,0,0,0-2.317-.726,3.58,3.58,0,0,0-2.327.7,4,4,0,0,0-1.233,1.65,25.678,25.678,0,0,0-.855,2.784L16.318,33.708,12.5,16.684a11.661,11.661,0,0,0-.975-3,2.089,2.089,0,0,0-1.828-1A19.631,19.631,0,0,1,25,5.334ZM5.334,25a19.546,19.546,0,0,1,1.555-7.662c.044.194.088.387.142.6l4.853,19.629q.217.876.5,1.9c.08.293.174.561.273.821A19.631,19.631,0,0,1,5.334,25ZM16.608,42.759a3,3,0,0,0,1.6-.648,3.784,3.784,0,0,0,1.144-1.551q.327-.867.884-2.854L25.01,20.224l4.714,17.482q.576,2.047.894,2.894a3.672,3.672,0,0,0,1.133,1.521,3.04,3.04,0,0,0,1.635.641,19.419,19.419,0,0,1-16.778,0Zm20.7-2.442c.21-.62.466-1.527.772-2.751l4.852-19.629c.057-.237.1-.451.151-.663a19.615,19.615,0,0,1-5.775,23.043Z"/></svg>